<svg version="1.1" id="Layer_1" xmlns="http://www.w3.org/2000/svg" xmlns:xlink="http://www.w3.org/1999/xlink" x="0px" y="0px"
	 width="100%" viewBox="0 0 114 60" enable-background="new 0 0 114 60" xml:space="preserve">
<path fill="#fcfcfc00" opacity="1.000000" stroke="none" 
	d="
M75.000000,61.000000 
	C50.000008,61.000000 25.500017,61.000000 1.000020,61.000000 
	C1.000013,41.000015 1.000013,21.000032 1.000007,1.000036 
	C38.999969,1.000024 76.999939,1.000024 114.999931,1.000012 
	C114.999954,20.999964 114.999954,40.999928 114.999977,60.999947 
	C101.833336,61.000000 88.666664,61.000000 75.000000,61.000000 
M52.738117,50.156330 
	C57.953266,49.065117 63.171055,47.986324 68.383026,46.880150 
	C79.759293,44.465683 91.167519,42.187279 102.492462,39.551563 
	C108.191216,38.225262 111.108200,33.208561 109.983223,27.801929 
	C108.937050,22.774040 104.091522,19.458502 98.725334,20.146648 
	C97.298447,20.329630 95.889969,20.656227 94.280457,20.952312 
	C93.180023,15.739733 92.142975,10.827429 91.090759,5.843254 
	C79.050484,8.482789 67.725677,10.965476 56.155327,13.501992 
	C56.806866,16.155872 57.412579,18.623093 58.017029,21.085155 
	C67.321304,19.157816 76.018654,17.356197 84.933823,15.509458 
	C85.473351,18.218019 85.886368,20.291466 86.352631,22.632214 
	C84.454353,23.103216 82.878113,23.543129 81.280647,23.883312 
	C59.296108,28.564962 37.308174,33.230633 15.322179,37.905441 
	C8.038169,39.454216 4.268455,43.940571 5.350499,49.748676 
	C6.513016,55.988743 11.758474,58.855755 19.179014,57.283764 
	C30.092178,54.971882 41.002262,52.645451 52.738117,50.156330 
z"/>
<path fill="#ffffff" opacity="1.000000" stroke="none" 
	d="
M52.325890,50.240776 
	C41.002262,52.645451 30.092178,54.971882 19.179014,57.283764 
	C11.758474,58.855755 6.513016,55.988743 5.350499,49.748676 
	C4.268455,43.940571 8.038169,39.454216 15.322179,37.905441 
	C37.308174,33.230633 59.296108,28.564962 81.280647,23.883312 
	C82.878113,23.543129 84.454353,23.103216 86.352631,22.632214 
	C85.886368,20.291466 85.473351,18.218019 84.933823,15.509458 
	C76.018654,17.356197 67.321304,19.157816 58.017029,21.085155 
	C57.412579,18.623093 56.806866,16.155872 56.155327,13.501992 
	C67.725677,10.965476 79.050484,8.482789 91.090759,5.843254 
	C92.142975,10.827429 93.180023,15.739733 94.280457,20.952312 
	C95.889969,20.656227 97.298447,20.329630 98.725334,20.146648 
	C104.091522,19.458502 108.937050,22.774040 109.983223,27.801929 
	C111.108200,33.208561 108.191216,38.225262 102.492462,39.551563 
	C91.167519,42.187279 79.759293,44.465683 68.383026,46.880150 
	C63.171055,47.986324 57.953266,49.065117 52.325890,50.240776 
z"/>
</svg>